<svg width="315" height="93" viewBox="0 0 315 93" fill="none" xmlns="http://www.w3.org/2000/svg">
<path d="M4.00734 11.7748C4.00734 11.7748 46.2526 25.1845 111.431 23.0097C176.61 20.835 229.955 -2.26018 311 5.63971V75.8146C311 75.8146 294.137 67.4006 243.013 73.5218C191.889 79.643 73.9664 101.453 4 79.2469L4.00734 11.7748Z" fill="#FDE7B6"/>
<path d="M4.00734 11.7748C4.00734 11.7748 46.2526 25.1845 111.431 23.0097C176.61 20.835 229.955 -2.26018 311 5.63971V75.8146C311 75.8146 294.137 67.4006 243.013 73.5218C191.889 79.643 73.9664 101.453 4 79.2469L4.00734 11.7748Z" stroke="#424A63" stroke-width="8" stroke-miterlimit="10"/>
<path d="M44.8063 63.648C45.8729 63.648 46.8116 63.36 47.6223 62.784C48.4543 62.208 48.8703 61.344 48.8703 60.192C48.8703 59.0187 48.4223 58.1227 47.5263 57.504C46.6516 56.8853 45.3929 56.352 43.7503 55.904C42.1289 55.4347 40.9449 55.0293 40.1983 54.688C39.4729 54.3467 38.7796 53.8987 38.1183 53.344C36.7956 52.2347 36.1343 50.5173 36.1343 48.192C36.1343 46.2933 36.8063 44.6613 38.1503 43.296C39.5156 41.9307 41.3716 41.248 43.7183 41.248C44.8489 41.248 46.0223 41.4187 47.2383 41.76C48.4756 42.08 49.2436 42.24 49.5423 42.24C49.8409 42.24 50.1076 42.0267 50.3423 41.6H50.6943L50.9183 48.064H50.4062C49.3823 46.208 48.3049 44.7253 47.1743 43.616C46.0649 42.4853 44.8489 41.92 43.5263 41.92C42.2249 41.92 41.2116 42.2293 40.4863 42.848C39.7609 43.4453 39.3983 44.256 39.3983 45.28C39.3983 46.2827 39.8249 47.0613 40.6783 47.616C41.5529 48.1493 42.6196 48.5867 43.8783 48.928C45.1369 49.2693 45.9583 49.504 46.3423 49.632C46.7476 49.76 47.2383 49.9413 47.8143 50.176C48.4116 50.3893 48.8916 50.624 49.2543 50.88C49.6383 51.1147 50.0329 51.424 50.4383 51.808C50.8649 52.1707 51.1956 52.576 51.4303 53.024C52.0063 54.048 52.2943 55.264 52.2943 56.672C52.2943 58.976 51.5689 60.832 50.1183 62.24C48.6889 63.6267 46.8009 64.32 44.4543 64.32C43.2383 64.32 41.8409 64.16 40.2623 63.84C38.7049 63.52 37.8409 63.36 37.6703 63.36C37.3716 63.36 37.0836 63.68 36.8063 64.32H36.3583L36.0383 56.704H36.5823C37.5209 58.56 38.7156 60.1813 40.1663 61.568C41.6383 62.9547 43.1849 63.648 44.8063 63.648Z" fill="#424A63"/>
<path d="M84.1613 47.208V69H79.6813L68.7053 48.296V68.392H70.4653V69H66.0813V68.392H67.8413V47.208H66.0813V46.6H74.9133L83.2973 62.664V47.208H81.5373V46.6H85.9213V47.208H84.1613Z" fill="#424A63"/>
<path d="M113.063 61.112V58.744C113.063 54.84 112.871 52.376 112.487 51.352C112.061 50.1787 111.453 49.4533 110.663 49.176C110.215 49.0053 109.671 48.92 109.031 48.92C108.391 48.92 107.837 49.0053 107.367 49.176C106.919 49.3467 106.546 49.6453 106.247 50.072C105.949 50.4987 105.703 50.9467 105.511 51.416C105.341 51.8853 105.202 52.5467 105.095 53.4C104.967 54.6373 104.903 56.4613 104.903 58.872V61.176C104.903 63.7787 104.999 65.6347 105.191 66.744C105.405 67.832 105.661 68.6107 105.959 69.08C106.621 70.1253 107.645 70.648 109.031 70.648C110.717 70.648 111.805 69.944 112.295 68.536C112.807 67.1067 113.063 64.632 113.063 61.112ZM108.967 71.32C105.405 71.32 102.738 70.36 100.967 68.44C99.2179 66.4987 98.3433 63.704 98.3433 60.056C98.3433 56.3867 99.2819 53.5067 101.159 51.416C103.058 49.304 105.735 48.248 109.191 48.248C112.647 48.248 115.25 49.2507 116.999 51.256C118.77 53.24 119.655 56.0667 119.655 59.736C119.655 63.4053 118.759 66.2533 116.967 68.28C115.197 70.3067 112.53 71.32 108.967 71.32Z" fill="#424A63"/>
<path d="M139.834 59.536L142.49 50.32L140.57 44.208H138.746V43.6H148.666V44.208H146.778L151.546 59.344L155.386 44.208H152.154V43.6H158.554V44.208H156.442L150.554 66.32H147.706L142.97 51.856L138.81 66.32H136.026L127.962 44.208H126.458V43.6H136.858V44.208H134.618L139.834 59.536Z" fill="#424A63"/>
<path d="M185.292 40.144C185.292 38.7147 185.911 37.5413 187.148 36.624C188.385 35.7067 190.241 35.248 192.716 35.248C195.191 35.248 197.089 35.7067 198.412 36.624C199.756 37.5413 200.428 38.9173 200.428 40.752C200.428 41.3493 200.375 41.8933 200.268 42.384C200.161 42.8533 199.916 43.3547 199.532 43.888C199.169 44.4 198.807 44.8587 198.444 45.264C198.103 45.6693 197.505 46.2027 196.652 46.864C195.372 47.888 194.028 48.912 192.62 49.936C191.212 50.9387 190.391 51.5253 190.156 51.696L188.204 53.104H195.884C197.356 53.104 198.401 52.784 199.02 52.144C199.639 51.504 200.076 50.5013 200.332 49.136H200.876L200.556 58H185.516V54.288L188.748 51.312C190.945 49.3067 192.503 47.5253 193.42 45.968C194.337 44.3893 194.796 42.6613 194.796 40.784C194.796 38.8853 194.593 37.5947 194.188 36.912C193.783 36.208 193.1 35.856 192.14 35.856C191.18 35.856 190.508 36.1013 190.124 36.592C189.74 37.0827 189.548 37.552 189.548 38C189.548 38.448 189.612 38.8427 189.74 39.184H190.7C190.871 39.632 190.956 40.176 190.956 40.816C190.956 41.4347 190.689 41.9787 190.156 42.448C189.623 42.896 188.919 43.12 188.044 43.12C187.169 43.12 186.487 42.8427 185.996 42.288C185.527 41.712 185.292 40.9973 185.292 40.144Z" fill="#424A63"/>
<path d="M217.807 53.32C214.714 53.32 212.356 52.2747 210.735 50.184C209.135 48.0933 208.335 45.1707 208.335 41.416C208.335 37.6613 209.199 34.8667 210.927 33.032C212.655 31.176 215.012 30.248 217.999 30.248C221.007 30.248 223.364 31.1653 225.071 33C226.799 34.8347 227.663 37.7573 227.663 41.768C227.663 45.7787 226.799 48.712 225.071 50.568C223.343 52.4027 220.922 53.32 217.807 53.32ZM214.895 40.584V43.432C214.895 45.5013 214.906 46.9627 214.927 47.816C214.97 48.6693 215.087 49.5547 215.279 50.472C215.471 51.3893 215.78 51.9867 216.207 52.264C216.634 52.52 217.135 52.648 217.711 52.648C218.287 52.648 218.714 52.616 218.991 52.552C219.29 52.488 219.546 52.36 219.759 52.168C219.994 51.9547 220.186 51.752 220.335 51.56C220.484 51.3467 220.602 51.0267 220.687 50.6C220.794 50.1733 220.879 49.7787 220.943 49.416C221.007 49.0533 221.05 48.52 221.071 47.816C221.114 46.4507 221.135 45.0747 221.135 43.688V40.872C221.135 36.6907 220.975 33.992 220.655 32.776C220.356 31.5387 219.482 30.92 218.031 30.92C216.58 30.92 215.695 31.5493 215.375 32.808C215.055 34.0667 214.895 36.6587 214.895 40.584Z" fill="#424A63"/>
<path d="M236.292 30.144C236.292 28.7147 236.911 27.5413 238.148 26.624C239.385 25.7067 241.241 25.248 243.716 25.248C246.191 25.248 248.089 25.7067 249.412 26.624C250.756 27.5413 251.428 28.9173 251.428 30.752C251.428 31.3493 251.375 31.8933 251.268 32.384C251.161 32.8533 250.916 33.3547 250.532 33.888C250.169 34.4 249.807 34.8587 249.444 35.264C249.103 35.6693 248.505 36.2027 247.652 36.864C246.372 37.888 245.028 38.912 243.62 39.936C242.212 40.9387 241.391 41.5253 241.156 41.696L239.204 43.104H246.884C248.356 43.104 249.401 42.784 250.02 42.144C250.639 41.504 251.076 40.5013 251.332 39.136H251.876L251.556 48H236.516V44.288L239.748 41.312C241.945 39.3067 243.503 37.5253 244.42 35.968C245.337 34.3893 245.796 32.6613 245.796 30.784C245.796 28.8853 245.593 27.5947 245.188 26.912C244.783 26.208 244.1 25.856 243.14 25.856C242.18 25.856 241.508 26.1013 241.124 26.592C240.74 27.0827 240.548 27.552 240.548 28C240.548 28.448 240.612 28.8427 240.74 29.184H241.7C241.871 29.632 241.956 30.176 241.956 30.816C241.956 31.4347 241.689 31.9787 241.156 32.448C240.623 32.896 239.919 33.12 239.044 33.12C238.169 33.12 237.487 32.8427 236.996 32.288C236.527 31.712 236.292 30.9973 236.292 30.144Z" fill="#424A63"/>
<path d="M260.292 27.144C260.292 25.7147 260.911 24.5413 262.148 23.624C263.385 22.7067 265.241 22.248 267.716 22.248C270.191 22.248 272.089 22.7067 273.412 23.624C274.756 24.5413 275.428 25.9173 275.428 27.752C275.428 28.3493 275.375 28.8933 275.268 29.384C275.161 29.8533 274.916 30.3547 274.532 30.888C274.169 31.4 273.807 31.8587 273.444 32.264C273.103 32.6693 272.505 33.2027 271.652 33.864C270.372 34.888 269.028 35.912 267.62 36.936C266.212 37.9387 265.391 38.5253 265.156 38.696L263.204 40.104H270.884C272.356 40.104 273.401 39.784 274.02 39.144C274.639 38.504 275.076 37.5013 275.332 36.136H275.876L275.556 45H260.516V41.288L263.748 38.312C265.945 36.3067 267.503 34.5253 268.42 32.968C269.337 31.3893 269.796 29.6613 269.796 27.784C269.796 25.8853 269.593 24.5947 269.188 23.912C268.783 23.208 268.1 22.856 267.14 22.856C266.18 22.856 265.508 23.1013 265.124 23.592C264.74 24.0827 264.548 24.552 264.548 25C264.548 25.448 264.612 25.8427 264.74 26.184H265.7C265.871 26.632 265.956 27.176 265.956 27.816C265.956 28.4347 265.689 28.9787 265.156 29.448C264.623 29.896 263.919 30.12 263.044 30.12C262.169 30.12 261.487 29.8427 260.996 29.288C260.527 28.712 260.292 27.9973 260.292 27.144Z" fill="#424A63"/>
</svg>
