<svg width="209" height="208" viewBox="0 0 209 208" fill="none" xmlns="http://www.w3.org/2000/svg">
<path d="M31.1082 73.8816C21.5933 86.9742 42.1553 125.58 80.6286 149.664C119.102 173.747 162.545 174.493 170.433 161.096C178.579 147.258 159.386 109.395 120.912 85.3117C82.4392 61.2283 41.4658 59.622 31.1082 73.8816Z" stroke="#E56848" stroke-width="6" stroke-linecap="round" stroke-linejoin="round"/>
<path d="M175.905 74.7089C185.42 87.804 164.858 126.41 126.385 150.494C87.9115 174.577 44.4688 175.323 36.5805 161.924C28.4318 148.086 47.6276 110.225 86.101 86.1416C124.574 62.0581 165.54 60.4519 175.905 74.7089Z" stroke="#E56848" stroke-width="6" stroke-linecap="round" stroke-linejoin="round"/>
<path d="M104.066 25.1707C120.21 24.0293 142.159 67.878 142.159 113.272C142.159 153.908 110.864 157.994 104.03 157.994C97.1966 157.994 66.2361 153.908 66.2361 113.394C66.2386 67.9904 86.4865 26.4144 104.066 25.1707Z" stroke="#E56848" stroke-width="6" stroke-linecap="round" stroke-linejoin="round"/>
<path d="M104.03 157.991C125.088 157.991 142.159 140.921 142.159 119.863C142.159 98.8049 125.088 81.7341 104.03 81.7341C82.9724 81.7341 65.9016 98.8049 65.9016 119.863C65.9016 140.921 82.9724 157.991 104.03 157.991Z" stroke="#E56848" stroke-width="6" stroke-linecap="round" stroke-linejoin="round"/>
<path d="M117.222 181.372L121.132 154.638L104.278 160.425L87.4238 154.638L91.3028 181.372C99.7072 183.058 108.36 183.088 116.776 181.459L117.222 181.372Z" stroke="#E56848" stroke-width="6" stroke-linecap="round" stroke-linejoin="round"/>
<path d="M116.165 204.381C112.476 204.748 108.735 204.933 104.942 204.935C101.124 204.934 97.3096 204.741 93.5117 204.355" stroke="#E56848" stroke-width="6" stroke-linecap="round" stroke-linejoin="round"/>
<path d="M117.35 193.257C113.131 193.676 108.857 193.885 104.526 193.885C100.162 193.887 95.8003 193.667 91.4585 193.227" stroke="#E56848" stroke-width="6" stroke-linecap="round" stroke-linejoin="round"/>
<path d="M122.812 50.1555C128.454 50.1555 133.027 45.5823 133.027 39.9409C133.027 34.2996 128.454 29.7263 122.812 29.7263C117.171 29.7263 112.598 34.2996 112.598 39.9409C112.598 45.5823 117.171 50.1555 122.812 50.1555Z" fill="#E56848"/>
<path d="M172.215 112.429C177.856 112.429 182.429 107.856 182.429 102.215C182.429 96.5732 177.856 92 172.215 92C166.573 92 162 96.5732 162 102.215C162 107.856 166.573 112.429 172.215 112.429Z" fill="#E56848"/>
<path d="M39.5735 120.813C45.2149 120.813 49.7881 116.239 49.7881 110.598C49.7881 104.957 45.2149 100.383 39.5735 100.383C33.9321 100.383 29.3589 104.957 29.3589 110.598C29.3589 116.239 33.9321 120.813 39.5735 120.813Z" fill="#E56848"/>
<path d="M75.5825 201.82C33.6132 189.368 3 150.509 3 104.508C3 48.4422 48.4422 3 104.508 3C160.573 3 206 48.4422 206 104.508C206 150.8 175.006 189.856 132.639 202.057" stroke="#E56848" stroke-width="6" stroke-linecap="round" stroke-linejoin="round"/>
</svg>
